<svg width="16" height="20" viewBox="0 0 16 20" fill="none" xmlns="http://www.w3.org/2000/svg">
<path d="M7 19C7 19.5523 7.44772 20 8 20C8.55228 20 9 19.5523 9 19L7 19ZM8.70711 0.292892C8.31658 -0.0976315 7.68342 -0.0976314 7.29289 0.292892L0.928932 6.65685C0.538407 7.04738 0.538407 7.68054 0.928932 8.07107C1.31946 8.46159 1.95262 8.46159 2.34315 8.07107L8 2.41421L13.6569 8.07107C14.0474 8.46159 14.6805 8.46159 15.0711 8.07107C15.4616 7.68054 15.4616 7.04738 15.0711 6.65685L8.70711 0.292892ZM9 19L9 1L7 1L7 19L9 19Z" fill="#F4F4F4"/>
</svg>
