<svg width="17" height="18" viewBox="0 0 17 18" fill="none" xmlns="http://www.w3.org/2000/svg">
<g clip-path="url(#clip0)">
<path d="M0.0332031 2.67947C0.116211 2.67947 0.0896484 2.61307 0.0962891 2.5699C0.195898 1.8826 0.551172 1.38123 1.21523 1.16541C1.7498 0.992756 2.30762 1.01268 2.80566 1.29822C3.11777 1.48084 3.35684 1.76307 3.48301 2.1117C3.57598 2.37069 3.6457 2.63963 3.61582 2.91522C3.54609 3.60916 3.23398 4.1869 2.47031 4.45584C1.89258 4.65506 1.33145 4.58201 0.803516 4.26658C0.770313 4.14705 0.687305 4.08729 0.567773 4.06737C0.564453 4.02088 0.557813 3.9744 0.494727 3.9744C0.255664 3.70877 0.142773 3.3867 0.0962891 3.03807C0.0896484 2.99822 0.10625 2.94178 0.0332031 2.9451C0.0332031 2.85545 0.0332031 2.76912 0.0332031 2.67947Z" fill="#804CDE"/>
<path d="M9.17074 8.09504C9.31351 8.00872 9.36995 7.88254 9.443 7.77961C9.80491 7.28157 10.2532 6.89641 10.811 6.62082C11.5746 6.24563 12.3848 6.20579 13.2016 6.28215C13.8291 6.3386 14.4235 6.5511 14.9647 6.89641C15.6088 7.30813 16.0703 7.87922 16.3858 8.56321C16.5784 8.97825 16.7045 9.41985 16.7809 9.87805C16.8506 10.3064 16.9037 10.7281 16.9037 11.163C16.9004 13.3212 16.9004 15.4794 16.9071 17.6376C16.9071 17.7904 16.8639 17.8302 16.7145 17.8269C15.6952 17.8202 14.6791 17.8202 13.6598 17.8269C13.5104 17.8269 13.4772 17.7837 13.4772 17.6409C13.4805 15.6056 13.4905 13.5669 13.4739 11.5316C13.4705 11.07 13.4075 10.6118 13.1684 10.1902C12.9559 9.81829 12.6604 9.55266 12.2719 9.39993C11.7506 9.19407 11.2127 9.15422 10.6682 9.30696C10.117 9.45969 9.73519 9.82161 9.46292 10.313C9.31019 10.5886 9.25706 10.8775 9.2139 11.1863C9.17074 11.5183 9.17738 11.8437 9.17738 12.1724C9.17074 13.9886 9.17074 15.8015 9.17738 17.6177C9.17738 17.7837 9.13753 17.8302 8.9682 17.8269C7.96214 17.8169 6.95277 17.8202 5.94671 17.8269C5.80726 17.8269 5.75745 17.7837 5.76077 17.6542C5.76409 17.5613 5.77074 17.4683 5.77074 17.3753C5.77074 13.8724 5.77406 10.3695 5.76742 6.86653C5.76742 6.72043 5.7973 6.66731 5.95667 6.66731C6.96937 6.67395 7.98206 6.67395 8.99476 6.66731C9.13089 6.66731 9.17738 6.70051 9.17406 6.84329C9.16409 7.24836 9.17074 7.65676 9.17074 8.09504Z" fill="#804CDE"/>
<path d="M3.61907 6.76689C3.61907 6.88311 3.62239 6.99932 3.62239 7.11553C3.62239 10.6118 3.62239 14.1081 3.62239 17.6077C3.62239 17.8202 3.62239 17.8202 3.40657 17.8202C2.35071 17.8202 1.29153 17.8202 0.235669 17.8202C0.232349 17.7372 0.229028 17.6542 0.229028 17.5712C0.229028 14.9548 0.229028 12.3417 0.229028 9.72529C0.229028 8.79229 0.232349 7.85596 0.225708 6.92295C0.225708 6.80342 0.255591 6.76025 0.381763 6.76025C1.46086 6.76689 2.53997 6.76357 3.61907 6.76689Z" fill="#804CDE"/>
<path d="M3.61912 6.76676C2.54001 6.76676 1.46423 6.76676 0.385132 6.76012C0.25896 6.76012 0.229077 6.79996 0.229077 6.92282C0.232397 7.85582 0.229077 8.78883 0.229077 9.72516C0.229077 12.3416 0.229077 14.9546 0.229077 17.5711C0.229077 17.6541 0.232397 17.7371 0.235718 17.8201C0.179272 17.8234 0.136108 17.8101 0.136108 17.7437C0.136108 17.7005 0.136108 17.6541 0.136108 17.6109C0.136108 14.0648 0.136108 10.522 0.136108 6.97594C0.136108 6.7236 0.159351 6.70035 0.408374 6.70035C1.42107 6.70035 2.43376 6.70035 3.44314 6.70367C3.50291 6.70035 3.59255 6.65387 3.61912 6.76676Z" fill="#804CDE"/>
<path d="M0.567749 4.0708C0.68728 4.09072 0.770288 4.15049 0.803491 4.27002C0.700562 4.23018 0.624194 4.16377 0.567749 4.0708Z" fill="#804CDE"/>
<path d="M0.494751 3.97754C0.557837 3.97754 0.561157 4.02402 0.567798 4.07051C0.498071 4.07383 0.498071 4.02734 0.494751 3.97754Z" fill="#804CDE"/>
</g>
<defs>
<clipPath id="clip0">
<rect width="17" height="17" fill="white" transform="translate(0 0.919922)"/>
</clipPath>
</defs>
</svg>
