<svg id="Layer_1" data-name="Layer 1" xmlns="http://www.w3.org/2000/svg" xmlns:xlink="http://www.w3.org/1999/xlink" viewBox="0 0 444.02 137.16">
  <defs>
    <style>
      .cls-1, .cls-6 {
        fill: none;
      }

      .cls-2 {
        clip-path: url(#clip-path);
      }

      .cls-3 {
        fill: url(#linear-gradient);
      }

      .cls-4 {
        clip-path: url(#clip-path-2);
      }

      .cls-5 {
        fill: #fefdff;
      }

      .cls-6 {
        stroke: #fff;
        stroke-miterlimit: 10;
      }
    </style>
    <clipPath id="clip-path">
      <path class="cls-1" d="M70,0A70,70,0,0,0,0,70a67.17,67.17,0,0,0,67.17,67.17H378.66A65.36,65.36,0,0,0,444,71.8v-.25A71.54,71.54,0,0,0,372.48,0Z"/>
    </clipPath>
    <linearGradient id="linear-gradient" y1="137.16" x2="1" y2="137.16" gradientTransform="matrix(444.02, 0, 0, -444.02, 0, 60970.54)" gradientUnits="userSpaceOnUse">
      <stop offset="0" stop-color="#1b0054"/>
      <stop offset="0.01" stop-color="#1b0054"/>
      <stop offset="0.32" stop-color="#8a2be2"/>
      <stop offset="0.66" stop-color="#b537f2"/>
      <stop offset="0.7" stop-color="#a24cf4"/>
      <stop offset="0.84" stop-color="#6b87f8"/>
      <stop offset="0.95" stop-color="#49abfb"/>
      <stop offset="1" stop-color="#3cb9fc"/>
    </linearGradient>
    <clipPath id="clip-path-2">
      <rect class="cls-1" width="444.02" height="137.16"/>
    </clipPath>
  </defs>
  <g class="cls-2">
    <rect class="cls-3" width="444.02" height="137.16"/>
  </g>
  <g class="cls-4">
    <path class="cls-5" d="M403,68.9c0-18.5-14.35-33-32.64-33a32.89,32.89,0,0,0-32.68,33.18A32.66,32.66,0,0,0,403,68.9M413.14,115h-3.82a4.44,4.44,0,0,1-4.43-4.16.37.37,0,0,1,0-.11,4.45,4.45,0,0,0-6.93-3.4c-1,.67-2,1.3-3,1.89-17.19,10.21-41.77,7.67-57.2-5.84S317.6,69,325.6,50.7,354.53,20,374.2,21.91c21.43,2.1,40.54,17,42.91,37.12,2,16.71.68,33.79.47,51.53a4.45,4.45,0,0,1-4.44,4.42"/>
    <path class="cls-6" d="M403,68.9c0-18.5-14.35-33-32.64-33a32.89,32.89,0,0,0-32.68,33.18A32.66,32.66,0,0,0,403,68.9ZM413.14,115h-3.82a4.44,4.44,0,0,1-4.43-4.16.37.37,0,0,1,0-.11,4.45,4.45,0,0,0-6.93-3.4c-1,.67-2,1.3-3,1.89-17.19,10.21-41.77,7.67-57.2-5.84S317.6,69,325.6,50.7,354.53,20,374.2,21.91c21.43,2.1,40.54,17,42.91,37.12,2,16.71.68,33.79.47,51.53A4.45,4.45,0,0,1,413.14,115Z"/>
    <path class="cls-5" d="M97.57,32.46V27.35A4.45,4.45,0,0,1,102,22.83h5.62A4.46,4.46,0,0,1,112,27.35v5.11A4.46,4.46,0,0,1,107.57,37H102a4.45,4.45,0,0,1-4.38-4.52"/>
    <path class="cls-6" d="M97.57,32.46V27.35A4.45,4.45,0,0,1,102,22.83h5.62A4.46,4.46,0,0,1,112,27.35v5.11A4.46,4.46,0,0,1,107.57,37H102A4.45,4.45,0,0,1,97.57,32.46Z"/>
    <path class="cls-5" d="M194,115.13h-6.48a4.45,4.45,0,0,1-4.44-4.46v-26c0-8.12.31-16.27-.06-24.38-.74-16.48,7.15-27.76,21.7-34.39s28.5-4.48,40.89,5.91c.36.3.72.6,1.1.9a4.45,4.45,0,0,0,5.52,0c1-.78,2-1.54,3-2.28,12.3-9.08,25.7-11,39.56-4.45,14,6.69,21.68,17.94,21.62,33.77-.06,16.84,0,33.67,0,50.85a4.45,4.45,0,0,1-4.45,4.45h-6.69a4.44,4.44,0,0,1-4.45-4.44c0-17.08-.12-33.91.07-50.73.08-7.94-3-14.12-9.48-18.43-7.05-4.71-14.76-5.52-22.53-1.57-7.51,3.82-11,10.38-11.1,18.42-.25,15.35-.08,30.71-.09,46.06v6a4.45,4.45,0,0,1-4.45,4.45h-6.86a4.45,4.45,0,0,1-4.45-4.46c0-15.52.06-30.83-.07-46.14a44.2,44.2,0,0,0-1.38-11.54c-3-10.69-12.12-16.51-22.74-15-11.33,1.6-19.08,9.62-19.19,20.58-.17,17.21-.07,34.42-.05,52.43a4.46,4.46,0,0,1-4.45,4.46"/>
    <path class="cls-6" d="M194,115.13h-6.48a4.45,4.45,0,0,1-4.44-4.46v-26c0-8.12.31-16.27-.06-24.38-.74-16.48,7.15-27.76,21.7-34.39s28.5-4.48,40.89,5.91c.36.3.72.6,1.1.9a4.45,4.45,0,0,0,5.52,0c1-.78,2-1.54,3-2.28,12.3-9.08,25.7-11,39.56-4.45,14,6.69,21.68,17.94,21.62,33.77-.06,16.84,0,33.67,0,50.85a4.45,4.45,0,0,1-4.45,4.45h-6.69a4.44,4.44,0,0,1-4.45-4.44c0-17.08-.12-33.91.07-50.73.08-7.94-3-14.12-9.48-18.43-7.05-4.71-14.76-5.52-22.53-1.57-7.51,3.82-11,10.38-11.1,18.42-.25,15.35-.08,30.71-.09,46.06v6a4.45,4.45,0,0,1-4.45,4.45h-6.86a4.45,4.45,0,0,1-4.45-4.46c0-15.52.06-30.83-.07-46.14a44.2,44.2,0,0,0-1.38-11.54c-3-10.69-12.12-16.51-22.74-15-11.33,1.6-19.08,9.62-19.19,20.58-.17,17.21-.07,34.42-.05,52.43A4.46,4.46,0,0,1,194,115.13Z"/>
    <path class="cls-5" d="M80.53,67.6v6.7a4.45,4.45,0,0,1-4.45,4.45H50.13a4.45,4.45,0,0,0-4.45,4.45v27.36A4.44,4.44,0,0,1,41.24,115H35.18a4.45,4.45,0,0,1-4.44-4.44c-.11-20.19-.87-40.1.36-59.89C32,36.8,45.38,24.83,60,23.09c8.34-1,16.87-.42,26.08-.25A4.44,4.44,0,0,1,90.41,27c.09,1.62.08,3.38.08,5.31,0,2.31-1.69,4.68-4.23,4.68-6.44,0-12.46,0-18.48,0-13-.1-23.25,10-22.1,22.12a4.46,4.46,0,0,0,4.44,4h26a4.45,4.45,0,0,1,4.45,4.45"/>
    <path class="cls-6" d="M80.53,67.6v6.7a4.45,4.45,0,0,1-4.45,4.45H50.13a4.45,4.45,0,0,0-4.45,4.45v27.36A4.44,4.44,0,0,1,41.24,115H35.18a4.45,4.45,0,0,1-4.44-4.44c-.11-20.19-.87-40.1.36-59.89C32,36.8,45.38,24.83,60,23.09c8.34-1,16.87-.42,26.08-.25A4.44,4.44,0,0,1,90.41,27c.09,1.62.08,3.38.08,5.31,0,2.31-1.69,4.68-4.23,4.68-6.44,0-12.46,0-18.48,0-13-.1-23.25,10-22.1,22.12a4.46,4.46,0,0,0,4.44,4h26A4.45,4.45,0,0,1,80.53,67.6Z"/>
    <path class="cls-5" d="M102,63.1h5.49A4.59,4.59,0,0,1,112,67.83v42.4a4.59,4.59,0,0,1-4.44,4.73H102a4.6,4.6,0,0,1-4.45-4.73V67.83A4.6,4.6,0,0,1,102,63.1"/>
    <path class="cls-6" d="M102,63.1h5.49A4.59,4.59,0,0,1,112,67.83v42.4a4.59,4.59,0,0,1-4.44,4.73H102a4.6,4.6,0,0,1-4.45-4.73V67.83A4.6,4.6,0,0,1,102,63.1Z"/>
    <path class="cls-5" d="M176.37,106.19v4.2a4.45,4.45,0,0,1-3.79,4.41c-22.8,3.33-48.41-13.18-51.23-36-2.09-16.91-.7-34.24-.48-51.88a4.47,4.47,0,0,1,4.45-4.42h6a4.44,4.44,0,0,1,4.45,4.39c.13,12.71.73,25.1-.22,37.37-1.78,23,16.2,38.16,35.06,37.39a10.59,10.59,0,0,1,1.77.08,4.47,4.47,0,0,1,4,4.43"/>
    <path class="cls-6" d="M176.37,106.19v4.2a4.45,4.45,0,0,1-3.79,4.41c-22.8,3.33-48.41-13.18-51.23-36-2.09-16.91-.7-34.24-.48-51.88a4.47,4.47,0,0,1,4.45-4.42h6a4.44,4.44,0,0,1,4.45,4.39c.13,12.71.73,25.1-.22,37.37-1.78,23,16.2,38.16,35.06,37.39a10.59,10.59,0,0,1,1.77.08A4.47,4.47,0,0,1,176.37,106.19Z"/>
  </g>
</svg>
