<svg width="16" height="17" viewBox="0 0 16 17" fill="none" xmlns="http://www.w3.org/2000/svg">
<g clip-path="url(#clip0)">
<path d="M3.56339 2.93348L6.00596 2.08299C6.52792 1.90059 7.09943 2.17775 7.28184 2.69971L7.98609 4.71945C8.16662 5.23839 7.89191 5.81048 7.37239 5.99346L6.62719 6.25525C6.97637 7.09097 7.42597 7.94001 7.96487 8.79458C7.96674 8.79761 7.97107 8.80122 7.97295 8.80425C8.43184 9.52604 8.91804 10.187 9.42158 10.7743L9.98874 10.2246C10.3846 9.84155 11.0191 9.85139 11.4027 10.2448L12.895 11.7772C13.2805 12.1736 13.2706 12.8082 12.8767 13.1942L11.0245 14.9994C10.6015 15.4097 10.021 15.555 9.48881 15.4295C9.24356 15.3717 9.0067 15.2562 8.80205 15.0811C7.65462 14.1064 6.63608 13.0351 5.76445 11.8898C5.72926 11.8634 3.51267 9.18669 2.49733 4.88525C2.29978 4.05422 2.7531 3.21876 3.56339 2.93348ZM3.49517 4.63902C4.09633 7.08492 5.90404 10.3098 5.91528 10.328C6.87218 11.7705 8.06661 13.1058 9.46816 14.2984C9.70988 14.503 10.0764 14.4859 10.305 14.2628L12.1367 12.4786L10.6816 10.986L10.1115 11.5376C9.91354 11.7291 9.64354 11.8311 9.36955 11.8183C9.09311 11.8049 8.84314 11.6683 8.65163 11.4704C8.07897 10.8797 6.44405 8.64565 5.66044 6.63308C5.56044 6.3765 5.55842 6.08865 5.66993 5.83534C5.78086 5.58449 5.99277 5.38851 6.25253 5.29702L6.99831 5.03278L6.31308 3.06413L3.89794 3.90814C3.59922 4.01115 3.42202 4.3344 3.49517 4.63902Z" fill="#804CDE"/>
</g>
<defs>
<clipPath id="clip0">
<rect width="12.9014" height="12.9014" fill="white" transform="matrix(-0.973303 -0.229524 -0.229524 0.973303 15.5181 3.88086)"/>
</clipPath>
</defs>
</svg>
