<svg width="88" height="101" viewBox="0 0 88 101" fill="none" xmlns="http://www.w3.org/2000/svg">
<g filter="url(#filter0_d)">
<path d="M43.9859 13C29.1098 13 17 25.2314 17 40.257C17 41.9677 17.1553 43.6927 17.4799 45.3748C17.494 45.4746 17.5504 45.774 17.6634 46.2872C18.0727 48.1262 18.6796 49.9367 19.4699 51.6616C22.3774 58.5757 28.771 69.1962 42.8003 80.5723C43.1532 80.8574 43.5766 81 44 81C44.4234 81 44.8468 80.8574 45.1997 80.5723C59.2148 69.1962 65.6226 58.5757 68.5301 51.6616C69.3204 49.9367 69.9273 48.1405 70.3366 46.2872C70.4496 45.774 70.506 45.4746 70.5201 45.3748C70.8306 43.6927 71 41.9677 71 40.257C70.9718 25.2314 58.862 13 43.9859 13ZM66.7376 44.7048C66.7376 44.7333 66.7235 44.7618 66.7235 44.7904C66.7094 44.8616 66.667 45.0755 66.5964 45.4034C66.5964 45.4176 66.5964 45.4176 66.5964 45.4319C66.2436 47.0285 65.7214 48.5824 65.0298 50.0792C65.0157 50.0935 65.0157 50.122 65.0016 50.1363C62.3623 56.4516 56.5755 66.0885 43.9859 76.595C31.3962 66.0885 25.6095 56.4516 22.9702 50.1363C22.9561 50.122 22.9561 50.0935 22.942 50.0792C22.2645 48.5966 21.7423 47.0285 21.3753 45.4319C21.3753 45.4176 21.3753 45.4176 21.3753 45.4034C21.2906 45.0755 21.2624 44.8616 21.2483 44.7904C21.2483 44.7618 21.2342 44.7333 21.2342 44.6906C20.9519 43.2222 20.8108 41.7396 20.8108 40.2428C20.8108 27.3413 31.2128 16.8348 43.9859 16.8348C56.759 16.8348 67.161 27.3413 67.161 40.2428C67.161 41.7539 67.0199 43.2507 66.7376 44.7048Z" fill="#804CDE"/>
<path d="M43.9859 23.251C34.5437 23.251 26.8516 31.0201 26.8516 40.5569C26.8516 50.0937 34.5437 57.8629 43.9859 57.8629C53.4281 57.8629 61.1202 50.0937 61.1202 40.5569C61.1202 31.0201 53.4281 23.251 43.9859 23.251ZM43.9859 54.0139C36.6325 54.0139 30.6623 47.9697 30.6623 40.5569C30.6623 33.1442 36.6466 27.0999 43.9859 27.0999C51.3252 27.0999 57.3095 33.1442 57.3095 40.5569C57.3095 47.9697 51.3393 54.0139 43.9859 54.0139Z" fill="#804CDE"/>
</g>
<defs>
<filter id="filter0_d" x="0.837837" y="0.351351" width="86.3243" height="100.324" filterUnits="userSpaceOnUse" color-interpolation-filters="sRGB">
<feFlood flood-opacity="0" result="BackgroundImageFix"/>
<feColorMatrix in="SourceAlpha" type="matrix" values="0 0 0 0 0 0 0 0 0 0 0 0 0 0 0 0 0 0 127 0"/>
<feOffset dy="3.51351"/>
<feGaussianBlur stdDeviation="8.08108"/>
<feColorMatrix type="matrix" values="0 0 0 0 0 0 0 0 0 0 0 0 0 0 0 0 0 0 1 0"/>
<feBlend mode="normal" in2="BackgroundImageFix" result="effect1_dropShadow"/>
<feBlend mode="normal" in="SourceGraphic" in2="effect1_dropShadow" result="shape"/>
</filter>
</defs>
</svg>
